<?xml version="1.0" encoding="utf-8"?>
<!-- Generator: Adobe Illustrator 18.0.0, SVG Export Plug-In . SVG Version: 6.00 Build 0)  -->
<!DOCTYPE svg PUBLIC "-//W3C//DTD SVG 1.1//EN" "http://www.w3.org/Graphics/SVG/1.1/DTD/svg11.dtd">
<svg version="1.1" id="Слой_1" xmlns="http://www.w3.org/2000/svg" xmlns:xlink="http://www.w3.org/1999/xlink" x="0px" y="0px"
	 viewBox="0 0 1024 534.3" enable-background="new 0 0 1024 534.3" xml:space="preserve">
<path fill="#000000"      d="
	M871.7,291.2c78.8,68,149.8,10,149.8,10c-55.9,20.5-92.5,9.5-111.6-1.3c-1.7-6.5,1.8-4.4,7.3-6.6c66.6,8.6,104.3-47.2,104.3-47.2
	c-68.2,64.4-132.9,25.9-137.4,23.1c-0.1-0.1-0.2-0.1-0.3-0.2c119.9-7.6,112.9-83.9,112.9-83.9c-20.7,60.7-89.4,73-125.7,75.1
	c-11.6-8.3-23.6-17.8-35.1-27.5c117.7-12.7,137.9-64.8,137.9-64.8c-95.3,70.5-163.3,42.6-163.4,42.5c0,0,0,0-0.1,0l-19.6-18.1
	c118.4,7.2,126.6-47.3,126.6-47.3c-31.9,36.5-98.5,40.4-134.6,39.6c-2-1.9-3.9-3.7-5.6-5.5c109.2-25.8,118.4-78.6,118.4-78.6
	c-48.2,54.4-100.9,65.9-129.5,67.7c-3.8-3.8-6-6.1-6-6.1c-14.2-9.9-28.3-18.6-42.2-26.4c87.9-34.3,88-82.4,88-82.4
	c-36,51.4-78.1,67.4-109.3,71.1c-7.4-3.7-14.8-7.1-22-10.2c52.9-24.1,64.5-78.1,64.5-78.1C706.7,83.7,676.8,101,654,106
	c-10.9-4.1-21.7-7.7-32.2-10.7c44.4-21.9,52.4-45,52.4-45c-19.1,22.7-42.8,35.1-63.5,41.9c-6.3-1.7-12.5-3.1-18.7-4.5
	C644.2,58.1,674.3,0,674.3,0c-27,37.2-84.7,68.7-112.4,82.4c-12-1.7-23.4-2.8-34.2-3.4c46.1-63.6,34.1-79,34.1-79
	c-13.9,40.5-38.1,65.9-52.7,78.4c-22.7-0.2-42,1.6-57,3.8c14-50.2,8.4-64.5,8.4-64.5c-4.1,18.5-17.2,57.6-20.7,66.5
	c-9.9,1.9-16.9,3.7-20.4,4.7c16.1-34.9,0.2-43.2,0.2-43.2c1.7,21.4-5.8,37.2-13.3,47.4c-8.8,2.9-17.5,5.9-26,8.9
	c5.4-39.8-12.3-44.5-12.3-44.5c10.2,17.4,6.3,35.8,0.9,48.6C135.2,192.9,16.1,333.9,16.1,333.9c-23.3,24.4-9.5,42-9.5,42
	c24.8,36.2,120.2,30.5,120.2,30.5c76.3-7.6,160.1,5.7,160.1,5.7c47.8,19.7,104.7,27.9,161.2,29.8c8,7.2,15.6,18.6,13.4,35.6
	c0,0,14.2-9.3-0.9-35.3c6.8,0.1,13.6,0.1,20.4,0.1c2.1,0.9,32.2,14.6,31.1,39.5c0,0,13.3-7.5-14.6-39.8c6.9-0.2,13.8-0.4,20.7-0.8
	c23.1,13.7,58.4,41.4,72.3,88.1c0,0,0-52.1-48.9-89.5c9.7-0.7,19.3-1.5,28.6-2.4c11.7,7.1,31.5,22,37.5,43.6
	c0,0,11.8-10.9-21.4-45.3c9.9-1.1,19.4-2.3,28.5-3.5c36.2,8.9,90,31,125.1,85.3c0,0-16.1-58.3-103.7-88.4c14.2-2.2,27-4.4,37.9-6.4
	c23.4,5.9,65.9,22.3,81.9,65.7c0,0,3.4-38.7-66-68.8c6.1-1.2,11.3-2.3,15.4-3.2c25.6,9.5,68.3,32,94.9,81.5c0,0,12.8-26.7-70.9-87.8
	c9.5-2.9,18.4-5.8,26.7-8.6c0,0,84.2,18.2,110.9,86.9c0,0,26.7-29.7-91.6-94c9.5-3.7,18-7.4,25.6-11.1c0,0,77.4,24.4,94.6,59
	c0,0,14.7-22.1-82.1-66.2c12.8-7.1,21.7-14,28.6-20.6v0.3c0,0,100.1-6.6,140.1,65.9c0,0-7.7-66.4-129-75.2
	c22.6-26.2,9.5-45.2,9.5-45.2c-17.2,62.7-118.1,86.1-118.1,86.1c-81.8,17.6-150.6,27.1-207.7,31.6c62.4-25.9,106-84.2,106-152.1
	c0-57.8-31.6-108.7-79.5-138.5c82.2,17.2,129.9,54.9,129.9,54.9C785.1,246.9,839.5,277.7,871.7,291.2z M309.9,404.5
	c-63-19.1-175.5-11.4-175.5-11.4C-3,396.8,16.1,364.4,16.1,364.4c87.5-112.5,232-180.3,321.3-213.7c-31.3,30-50.6,70.9-50.6,116
	c0,68.7,44.6,127.7,108.3,153C336.2,415,309.9,404.5,309.9,404.5z M390,261.3c0-37.9,32.5-68.7,72.5-68.7s72.5,30.8,72.5,68.7
	c0,37.9-32.5,68.7-72.5,68.7S390,299.2,390,261.3z"/>
</svg>
