<?xml version="1.0" standalone="no"?>
<!DOCTYPE svg PUBLIC "-//W3C//DTD SVG 20010904//EN"
 "http://www.w3.org/TR/2001/REC-SVG-20010904/DTD/svg10.dtd">
<svg version="1.0" xmlns="http://www.w3.org/2000/svg"
 width="1280.000000pt" height="1096.000000pt" viewBox="0 0 1280.000000 1096.000000"
 preserveAspectRatio="xMidYMid meet">
<g transform="translate(0.000000,1096.000000) scale(0.100000,-0.100000)"
fill="#000000" stroke="none">
<path d="M9700 10950 c-30 -4 -104 -13 -165 -20 -1111 -121 -2058 -880 -2428
-1945 -47 -136 -102 -361 -129 -530 -22 -138 -22 -155 -25 -1350 -3 -844 -7
-1213 -15 -1222 -8 -11 -495 -13 -2629 -13 -2578 0 -2618 0 -2629 -19 -13 -26
-14 -5279 0 -5301 8 -13 379 -15 3240 -15 2861 0 3232 2 3240 15 15 24 13
5293 -2 5308 -8 8 -68 12 -203 12 -135 0 -195 4 -203 12 -15 15 -17 2071 -2
2283 38 519 232 965 580 1329 701 733 1805 873 2668 338 507 -315 864 -846
967 -1441 31 -178 35 -398 35 -1992 l0 -1607 88 -6 c227 -16 453 -18 580 -6
l132 13 0 1663 c0 986 -4 1693 -9 1736 -6 40 -15 120 -21 178 -101 916 -641
1733 -1452 2199 -331 190 -725 318 -1108 360 -58 7 -138 16 -178 22 -84 10
-252 10 -332 -1z"/>
</g>
</svg>
